<svg width="38" height="38" viewBox="0 0 38 38" fill="none" xmlns="http://www.w3.org/2000/svg">
<g clip-path="url(#clip0_386_74)">
<path d="M0 19C0 8.50659 8.50659 0 19 0V0C29.4934 0 38 8.50659 38 19V19C38 29.4934 29.4934 38 19 38V38C8.50659 38 0 29.4934 0 19V19Z" fill="#EDEDEE"/>
<rect x="1" y="1" width="36" height="36" rx="18" fill="white"/>
<rect x="1" y="1" width="36" height="36" rx="18" stroke="#1F1F1F" stroke-width="2"/>
<circle cx="19.2922" cy="19.3961" r="7.5" fill="#AAFA12" fill-opacity="0.76"/>
<path d="M31.2602 32.1773C29.4754 29.0918 26.7251 26.8793 23.5153 25.8305C25.103 24.8853 26.3365 23.4451 27.0265 21.731C27.7164 20.0169 27.8246 18.1237 27.3345 16.3422C26.8444 14.5607 25.783 12.9893 24.3133 11.8693C22.8437 10.7494 21.047 10.1429 19.1993 10.1429C17.3515 10.1429 15.5549 10.7494 14.0852 11.8693C12.6156 12.9893 11.5542 14.5607 11.064 16.3422C10.5739 18.1237 10.6821 20.0169 11.3721 21.731C12.062 23.4451 13.2956 24.8853 14.8833 25.8305C11.6735 26.8781 8.92309 29.0906 7.13832 32.1773C7.07287 32.2841 7.02946 32.4028 7.01065 32.5266C6.99183 32.6503 6.998 32.7766 7.02878 32.898C7.05956 33.0193 7.11434 33.1333 7.18988 33.2331C7.26541 33.333 7.36018 33.4167 7.46859 33.4793C7.57699 33.5419 7.69685 33.5822 7.82107 33.5977C7.94529 33.6133 8.07137 33.6038 8.19187 33.5698C8.31236 33.5358 8.42483 33.4781 8.52265 33.3999C8.62046 33.3218 8.70163 33.2249 8.76137 33.1148C10.9692 29.2992 14.8715 27.0211 19.1993 27.0211C23.527 27.0211 27.4294 29.2992 29.6372 33.1148C29.6969 33.2249 29.7781 33.3218 29.8759 33.3999C29.9737 33.4781 30.0862 33.5358 30.2067 33.5698C30.3272 33.6038 30.4532 33.6133 30.5775 33.5977C30.7017 33.5822 30.8215 33.5419 30.93 33.4793C31.0384 33.4167 31.1331 33.333 31.2087 33.2331C31.2842 33.1333 31.339 33.0193 31.3698 32.898C31.4005 32.7766 31.4067 32.6503 31.3879 32.5266C31.3691 32.4028 31.3257 32.2841 31.2602 32.1773ZM12.6368 18.5836C12.6368 17.2856 13.0216 16.0168 13.7427 14.9376C14.4638 13.8584 15.4888 13.0173 16.6879 12.5206C17.887 12.0239 19.2066 11.894 20.4796 12.1472C21.7526 12.4004 22.9219 13.0254 23.8397 13.9432C24.7574 14.861 25.3825 16.0303 25.6357 17.3033C25.8889 18.5763 25.7589 19.8958 25.2622 21.0949C24.7655 22.2941 23.9244 23.319 22.8452 24.0401C21.766 24.7612 20.4972 25.1461 19.1993 25.1461C17.4594 25.1442 15.7912 24.4522 14.5609 23.2219C13.3306 21.9916 12.6386 20.3235 12.6368 18.5836Z" fill="#1F1F1F"/>
</g>
<defs>
<clipPath id="clip0_386_74">
<path d="M0 19C0 8.50659 8.50659 0 19 0V0C29.4934 0 38 8.50659 38 19V19C38 29.4934 29.4934 38 19 38V38C8.50659 38 0 29.4934 0 19V19Z" fill="white"/>
</clipPath>
</defs>
</svg>
